HIERARCHY
ROOT Hips
{
    OFFSET 0 0 0
    CHANNELS 6 Xposition Yposition Zposition Zrotation Xrotation Yrotation

    JOINT Spine
    {
        OFFSET 0 10 0
        CHANNELS 3 Zrotation Xrotation Yrotation

        JOINT Spine1
        {
            OFFSET 0 10 0
            CHANNELS 3 Zrotation Xrotation Yrotation

            JOINT Spine2
            {
                OFFSET 0 10 0
                CHANNELS 3 Zrotation Xrotation Yrotation

                JOINT Neck
                {
                    OFFSET 0 10 0
                    CHANNELS 3 Zrotation Xrotation Yrotation

                    JOINT Head
                    {
                        OFFSET 0 5 0
                        CHANNELS 3 Zrotation Xrotation Yrotation
                    }
                }

                JOINT LeftShoulder
                {
                    OFFSET 5 5 0
                    CHANNELS 3 Zrotation Xrotation Yrotation

                    JOINT LeftArm
                    {
                        OFFSET 10 0 0
                        CHANNELS 3 Zrotation Xrotation Yrotation

                        JOINT LeftForeArm
                        {
                            OFFSET 10 0 0
                            CHANNELS 3 Zrotation Xrotation Yrotation

                            JOINT LeftHand
                            {
                                OFFSET 10 0 0
                                CHANNELS 3 Zrotation Xrotation Yrotation
                            }
                        }
                    }
                }

                JOINT RightShoulder
                {
                    OFFSET -5 5 0
                    CHANNELS 3 Zrotation Xrotation Yrotation

                    JOINT RightArm
                    {
                        OFFSET -10 0 0
                        CHANNELS 3 Zrotation Xrotation Yrotation

                        JOINT RightForeArm
                        {
                            OFFSET -10 0 0
                            CHANNELS 3 Zrotation Xrotation Yrotation

                            JOINT RightHand
                            {
                                OFFSET -10 0 0
                                CHANNELS 3 Zrotation Xrotation Yrotation
                            }
                        }
                    }
                }
            }
        }
    }

    JOINT LeftUpLeg
    {
        OFFSET 5 0 0
        CHANNELS 3 Zrotation Xrotation Yrotation

        JOINT LeftLeg
        {
            OFFSET 0 -20 0
            CHANNELS 3 Zrotation Xrotation Yrotation

            JOINT LeftFoot
            {
                OFFSET 0 -20 5
                CHANNELS 3 Zrotation Xrotation Yrotation
            }
        }
    }

    JOINT RightUpLeg
    {
        OFFSET -5 0 0
        CHANNELS 3 Zrotation Xrotation Yrotation

        JOINT RightLeg
        {
            OFFSET 0 -20 0
            CHANNELS 3 Zrotation Xrotation Yrotation

            JOINT RightFoot
            {
                OFFSET 0 -20 5
                CHANNELS 3 Zrotation Xrotation Yrotation
            }
        }
    }
}

MOTION
Frames: 14
Frame Time: 0.033198
64.605582 -0.000373 -47.332926 0.000000 0.000000 0.000000 136.320146 -60.656803 0.000000 -101.073254 -5.252233 0.000000 159.979777 -8.748208 0.000000 0.000000 0.000000 0.000000 0.000000 0.000000 0.000000 49.897050 23.439433 0.000000 -146.984747 15.914260 0.000000 0.000000 0.000000 0.000000 0.000000 0.000000 0.000000 -57.240507 26.214979 0.000000 158.133917 29.475914 0.000000 0.000000 0.000000 0.000000 0.000000 0.000000 0.000000 179.461541 68.207346 0.000000 1.286071 17.837333 0.000000 0.000000 0.000000 0.000000 -122.429851 73.112178 0.000000 -2.336459 22.628392 0.000000 0.000000 0.000000 0.000000
64.211673 -0.000879 -47.253433 0.000000 0.000000 0.000000 135.225957 -60.086845 0.000000 -97.958729 -5.327297 0.000000 160.322726 -8.762520 0.000000 0.000000 0.000000 0.000000 0.000000 0.000000 0.000000 50.211447 23.965562 0.000000 -147.774562 16.204246 0.000000 0.000000 0.000000 0.000000 0.000000 0.000000 0.000000 -59.475504 26.470826 0.000000 159.766854 28.771346 0.000000 0.000000 0.000000 0.000000 0.000000 0.000000 0.000000 175.795759 68.527955 0.000000 1.120672 18.178748 0.000000 0.000000 0.000000 0.000000 -125.526039 73.969435 0.000000 -2.189216 22.045623 0.000000 0.000000 0.000000 0.000000
63.775733 -0.000782 -47.180390 0.000000 0.000000 0.000000 133.300206 -59.948292 0.000000 -94.984434 -5.481264 0.000000 159.987413 -9.100622 0.000000 0.000000 0.000000 0.000000 0.000000 0.000000 0.000000 49.916727 24.269718 0.000000 -145.078688 17.705348 0.000000 0.000000 0.000000 0.000000 0.000000 0.000000 0.000000 -60.429350 26.246921 0.000000 158.191713 31.331566 0.000000 0.000000 0.000000 0.000000 0.000000 0.000000 0.000000 173.033539 67.905822 0.000000 1.185545 19.265900 0.000000 0.000000 0.000000 0.000000 -129.977467 74.773073 0.000000 -2.164620 22.188166 0.000000 0.000000 0.000000 0.000000
63.266078 -0.000966 -47.120942 0.000000 0.000000 0.000000 128.815999 -61.140238 0.000000 -93.968614 -5.519450 0.000000 158.977323 -9.490379 0.000000 0.000000 0.000000 0.000000 0.000000 0.000000 0.000000 51.740897 25.203918 0.000000 -143.479603 18.699951 0.000000 0.000000 0.000000 0.000000 0.000000 0.000000 0.000000 -63.908986 26.532461 0.000000 155.926393 33.869780 0.000000 0.000000 0.000000 0.000000 0.000000 0.000000 0.000000 169.650495 67.758046 0.000000 1.308186 20.281231 0.000000 0.000000 0.000000 0.000000 -133.976814 75.663201 0.000000 -2.181339 23.810484 0.000000 0.000000 0.000000 0.000000
62.789288 -0.001234 -47.068715 0.000000 0.000000 0.000000 129.428691 -60.942617 0.000000 -94.639420 -5.585766 0.000000 159.386420 -9.297194 0.000000 0.000000 0.000000 0.000000 0.000000 0.000000 0.000000 51.468540 25.421726 0.000000 -144.417107 18.724163 0.000000 0.000000 0.000000 0.000000 0.000000 0.000000 0.000000 -62.984383 25.995142 0.000000 156.579038 32.971595 0.000000 0.000000 0.000000 0.000000 0.000000 0.000000 0.000000 167.955345 67.542360 0.000000 1.432215 20.358222 0.000000 0.000000 0.000000 0.000000 -137.869828 76.072465 0.000000 -1.880378 24.233071 0.000000 0.000000 0.000000 0.000000
62.284356 -0.001441 -47.022387 0.000000 0.000000 0.000000 130.088694 -60.861910 0.000000 -94.818826 -5.623009 0.000000 158.998140 -9.399674 0.000000 0.000000 0.000000 0.000000 0.000000 0.000000 0.000000 52.009998 25.654688 0.000000 -144.545878 18.894609 0.000000 0.000000 0.000000 0.000000 0.000000 0.000000 0.000000 -63.034081 25.661973 0.000000 154.708844 33.716543 0.000000 0.000000 0.000000 0.000000 0.000000 0.000000 0.000000 166.413721 67.380550 0.000000 1.838128 20.871256 0.000000 0.000000 0.000000 0.000000 -143.241814 75.726034 0.000000 -1.572614 24.965411 0.000000 0.000000 0.000000 0.000000
61.711499 -0.001572 -46.966740 0.000000 0.000000 0.000000 137.475558 -57.752914 0.000000 -95.155412 -5.622130 0.000000 160.082389 -8.979904 0.000000 0.000000 0.000000 0.000000 0.000000 0.000000 0.000000 49.805180 25.058367 0.000000 -145.983925 18.590629 0.000000 0.000000 0.000000 0.000000 0.000000 0.000000 0.000000 -61.723610 25.307915 0.000000 156.386590 31.448159 0.000000 0.000000 0.000000 0.000000 0.000000 0.000000 0.000000 163.843422 67.072295 0.000000 2.123088 19.933814 0.000000 0.000000 0.000000 0.000000 -144.385452 75.943452 0.000000 -0.796126 23.670357 0.000000 0.000000 0.000000 0.000000
61.173099 -0.001642 -46.952116 0.000000 0.000000 0.000000 140.447040 -56.230076 0.000000 -93.142472 -5.682633 0.000000 160.541684 -8.816959 0.000000 0.000000 0.000000 0.000000 0.000000 0.000000 0.000000 49.695945 24.846988 0.000000 -145.763934 18.794470 0.000000 0.000000 0.000000 0.000000 0.000000 0.000000 0.000000 -61.210491 24.872856 0.000000 156.078609 31.620952 0.000000 0.000000 0.000000 0.000000 0.000000 0.000000 0.000000 164.579093 65.843469 0.000000 2.611934 19.675333 0.000000 0.000000 0.000000 0.000000 -149.500174 75.722718 0.000000 -0.649869 23.327514 0.000000 0.000000 0.000000 0.000000
60.654199 -0.001480 -46.881275 0.000000 0.000000 0.000000 147.436956 -52.419415 0.000000 -92.037250 -5.664649 0.000000 161.317886 -8.509502 0.000000 0.000000 0.000000 0.000000 0.000000 0.000000 0.000000 48.059128 24.207898 0.000000 -147.223824 18.335184 0.000000 0.000000 0.000000 0.000000 0.000000 0.000000 0.000000 -58.116956 24.141028 0.000000 157.472916 30.711594 0.000000 0.000000 0.000000 0.000000 0.000000 0.000000 0.000000 164.667537 65.886388 0.000000 3.141080 19.380360 0.000000 0.000000 0.000000 0.000000 -152.693790 76.152456 0.000000 -0.436915 22.619079 0.000000 0.000000 0.000000 0.000000
60.034621 -0.001179 -46.854289 0.000000 0.000000 0.000000 150.356518 -50.513912 0.000000 -89.902011 -5.581482 0.000000 161.911218 -8.358591 0.000000 0.000000 0.000000 0.000000 0.000000 0.000000 0.000000 47.360979 23.756066 0.000000 -146.976185 18.631367 0.000000 0.000000 0.000000 0.000000 0.000000 0.000000 0.000000 -56.661011 23.743546 0.000000 158.555500 30.540900 0.000000 0.000000 0.000000 0.000000 0.000000 0.000000 0.000000 162.440129 65.763115 0.000000 3.366812 18.934313 0.000000 0.000000 0.000000 0.000000 -156.647737 76.903945 0.000000 -0.174839 21.848658 0.000000 0.000000 0.000000 0.000000
59.420079 -0.000709 -46.851397 0.000000 0.000000 0.000000 151.946395 -49.795172 0.000000 -87.971389 -5.439872 0.000000 162.208977 -8.348309 0.000000 0.000000 0.000000 0.000000 0.000000 0.000000 0.000000 48.154524 23.719337 0.000000 -146.560725 18.935485 0.000000 0.000000 0.000000 0.000000 0.000000 0.000000 0.000000 -56.683834 23.872083 0.000000 157.780671 30.614309 0.000000 0.000000 0.000000 0.000000 0.000000 0.000000 0.000000 162.080076 64.609981 0.000000 3.834572 18.691304 0.000000 0.000000 0.000000 0.000000 -159.844276 76.888313 0.000000 0.370232 21.777416 0.000000 0.000000 0.000000 0.000000
58.788809 -0.000063 -46.866857 0.000000 0.000000 0.000000 153.871460 -48.342638 0.000000 -85.471572 -5.179165 0.000000 163.183209 -8.355397 0.000000 0.000000 0.000000 0.000000 0.000000 0.000000 0.000000 48.493774 23.790161 0.000000 -145.190496 19.642155 0.000000 0.000000 0.000000 0.000000 0.000000 0.000000 0.000000 -55.953399 23.762252 0.000000 157.437149 30.566938 0.000000 0.000000 0.000000 0.000000 0.000000 0.000000 0.000000 160.096747 63.861068 0.000000 4.184853 18.539420 0.000000 0.000000 0.000000 0.000000 -162.862340 77.025549 0.000000 0.860944 21.801333 0.000000 0.000000 0.000000 0.000000
58.230853 0.000897 -46.906322 0.000000 0.000000 0.000000 154.577323 -49.096619 0.000000 -86.133676 -4.852530 0.000000 163.432059 -8.581698 0.000000 0.000000 0.000000 0.000000 0.000000 0.000000 0.000000 48.531040 23.810281 0.000000 -144.984251 19.773527 0.000000 0.000000 0.000000 0.000000 0.000000 0.000000 0.000000 -55.188476 24.112601 0.000000 155.473982 30.868774 0.000000 0.000000 0.000000 0.000000 0.000000 0.000000 0.000000 159.943400 62.359309 0.000000 4.584746 18.172913 0.000000 0.000000 0.000000 0.000000 -166.754362 76.145673 0.000000 1.237391 21.698681 0.000000 0.000000 0.000000 0.000000
57.668966 0.001747 -46.933208 0.000000 0.000000 0.000000 154.948948 -50.063717 0.000000 -84.519626 -4.381707 0.000000 164.356386 -8.823716 0.000000 0.000000 0.000000 0.000000 0.000000 0.000000 0.000000 49.897798 24.315810 0.000000 -145.090361 20.091643 0.000000 0.000000 0.000000 0.000000 0.000000 0.000000 0.000000 -52.585912 23.544463 0.000000 156.171647 30.339503 0.000000 0.000000 0.000000 0.000000 0.000000 0.000000 0.000000 159.024445 62.278148 0.000000 5.081755 18.154925 0.000000 0.000000 0.000000 0.000000 -170.756027 76.134657 0.000000 1.408584 21.241640 0.000000 0.000000 0.000000 0.000000
